<svg xmlns="http://www.w3.org/2000/svg" xmlns:xlink="http://www.w3.org/1999/xlink" width="1080" zoomAndPan="magnify" viewBox="0 0 810 809.999993" height="1080" preserveAspectRatio="xMidYMid meet" version="1.0"><defs><clipPath id="3abd36b14b"><path d="M 462 190 L 801.5625 190 L 801.5625 532 L 462 532 Z M 462 190 " clip-rule="nonzero"/></clipPath><clipPath id="95562ba17a"><path d="M 275 467 L 620 467 L 620 803.484375 L 275 803.484375 Z M 275 467 " clip-rule="nonzero"/></clipPath></defs><path fill="#ffffff" d="M 531.53125 152.699219 C 620.914062 152.699219 702.140625 179.074219 762.742188 222.152344 C 720.355469 137.371094 632.765625 79.140625 531.53125 79.140625 C 430.3125 79.140625 342.722656 137.371094 300.335938 222.152344 C 360.898438 179.074219 442.164062 152.699219 531.53125 152.699219 " fill-opacity="1" fill-rule="nonzero"/><g clip-path="url(#3abd36b14b)"><path fill="#8700ff" d="M 674.644531 318.460938 C 737.484375 382.003906 775.867188 458.324219 787.792969 531.679688 C 818.289062 441.910156 798.121094 338.703125 726.945312 266.730469 C 655.753906 194.757812 552.757812 173.433594 462.683594 202.929688 C 535.902344 215.703125 611.792969 254.914062 674.644531 318.460938 " fill-opacity="1" fill-rule="nonzero"/></g><path fill="#ffffff" d="M 657.378906 536.746094 C 656.40625 626.125 629.113281 707.078125 585.367188 767.132812 C 670.628906 725.71875 729.828125 638.785156 730.960938 537.589844 C 732.09375 436.34375 674.820312 348.125 590.519531 304.804688 C 632.917969 365.859375 658.398438 447.390625 657.378906 536.746094 " fill-opacity="1" fill-rule="nonzero"/><g clip-path="url(#95562ba17a)"><path fill="#8700ff" d="M 490.054688 677.996094 C 425.828125 740.128906 349.070312 777.652344 275.585938 788.8125 C 365.003906 820.261719 468.425781 801.242188 541.21875 730.871094 C 613.960938 660.5 636.417969 557.742188 607.949219 467.328125 C 594.359375 540.410156 554.304688 615.859375 490.054688 677.996094 " fill-opacity="1" fill-rule="nonzero"/></g><path fill="#ffffff" d="M 271.972656 658.332031 C 182.617188 656.367188 101.964844 628.179688 42.375 583.753906 C 82.859375 669.453125 169.113281 729.636719 270.332031 731.878906 C 371.527344 734.132812 460.390625 677.855469 504.652344 594.019531 C 443.121094 635.746094 361.324219 660.324219 271.972656 658.332031 " fill-opacity="1" fill-rule="nonzero"/><path fill="#8700ff" d="M 132.574219 489.460938 C 71.167969 424.527344 34.503906 347.367188 24.175781 273.757812 C -8.285156 362.824219 9.574219 466.460938 79.140625 539.980469 C 148.722656 613.542969 251.214844 637.132812 341.914062 609.675781 C 269 595.265625 194.015625 554.367188 132.574219 489.460938 " fill-opacity="1" fill-rule="nonzero"/><path fill="#ffffff" d="M 154.667969 271.578125 C 157.625 182.273438 186.722656 101.9375 231.777344 42.839844 C 145.621094 82.363281 84.507812 167.964844 81.144531 269.121094 C 77.769531 370.304688 133.050781 459.773438 216.386719 504.976562 C 175.347656 442.996094 151.679688 360.90625 154.667969 271.578125 " fill-opacity="1" fill-rule="nonzero"/><path fill="#8700ff" d="M 325.085938 134.109375 C 390.699219 73.394531 468.265625 37.585938 541.988281 28.078125 C 453.300781 -5.363281 349.460938 11.335938 275.15625 80.085938 C 200.828125 148.832031 176.09375 251.058594 202.554688 342.078125 C 217.757812 269.335938 259.488281 194.78125 325.085938 134.109375 " fill-opacity="1" fill-rule="nonzero"/></svg>